<?xml version="1.0" standalone="no"?>
<!DOCTYPE svg PUBLIC "-//W3C//DTD SVG 20010904//EN"
 "http://www.w3.org/TR/2001/REC-SVG-20010904/DTD/svg10.dtd">
<svg version="1.0" xmlns="http://www.w3.org/2000/svg"
 width="420.000000pt" height="420.000000pt" viewBox="0 0 420.000000 420.000000"
 preserveAspectRatio="xMidYMid meet">
<metadata>
Created by potrace 1.11, written by Peter Selinger 2001-2013
</metadata>
<g transform="translate(0.000000,420.000000) scale(0.100000,-0.100000)"
fill="#000000" stroke="none">
<path d="M1053 3753 c-23 -14 -811 -956 -990 -1187 -16 -19 -23 -42 -23 -71 0
-39 26 -80 371 -581 204 -297 513 -744 685 -995 205 -297 323 -460 340 -467
18 -9 208 -12 682 -12 575 0 660 2 679 15 13 9 120 161 239 338 120 177 259
383 309 457 316 465 797 1182 806 1204 26 57 20 67 -501 685 -275 327 -510
601 -522 610 -21 14 -126 16 -1033 19 -949 2 -1012 1 -1042 -15z m2068 -26
c30 -23 1001 -1182 1011 -1207 7 -16 7 -34 0 -52 -5 -14 -238 -365 -517 -780
-788 -1168 -815 -1207 -835 -1218 -12 -6 -253 -10 -669 -10 l-651 0 -34 33
c-18 17 -228 316 -467 662 -238 347 -538 782 -666 969 -190 276 -233 344 -233
372 0 25 12 48 47 91 247 303 893 1086 921 1116 l36 37 1021 0 c786 -1 1024
-3 1036 -13z"/>
<path d="M1119 3659 c-17 -6 -188 -206 -481 -562 -250 -304 -460 -563 -467
-576 -7 -13 -11 -42 -9 -65 3 -36 85 -160 626 -946 343 -498 639 -920 658
-938 l34 -32 623 0 c546 0 625 2 645 15 24 18 67 80 771 1124 450 668 501 748
501 783 0 22 -5 48 -11 59 -6 11 -217 267 -470 567 -347 413 -469 551 -497
564 -34 16 -107 17 -967 17 -568 0 -940 -4 -956 -10z m1419 -408 c2 -133 -1
-176 -10 -183 -7 -4 -55 -8 -105 -8 l-93 0 0 -585 c0 -492 2 -585 14 -585 28
0 173 81 233 130 164 133 272 338 289 551 6 71 9 78 31 84 40 10 735 4 755 -6
16 -9 18 -26 18 -187 0 -125 -4 -182 -12 -190 -9 -9 -69 -12 -208 -12 l-197 0
-12 -42 c-22 -74 -97 -220 -150 -293 -160 -219 -405 -390 -663 -462 l-98 -27
0 -133 0 -132 133 -3 132 -3 0 -190 0 -190 -509 -3 c-401 -2 -511 0 -518 10
-9 15 -11 339 -2 362 5 14 27 16 140 16 l134 0 0 133 0 134 -81 21 c-168 45
-300 111 -448 222 -167 127 -297 304 -376 515 l-23 60 -208 6 c-115 3 -210 6
-211 7 -2 1 -3 85 -3 187 0 172 1 185 19 195 27 14 745 14 772 0 15 -9 19 -22
19 -63 1 -108 44 -249 111 -365 19 -31 75 -98 124 -147 73 -74 107 -100 182
-138 50 -26 98 -47 107 -47 14 0 16 57 16 585 l0 584 -102 3 -103 3 -3 183 -2
182 452 -2 453 -3 3 -174z"/>
</g>
</svg>
